<svg width="23" height="18" viewBox="0 0 23 18" fill="none" xmlns="http://www.w3.org/2000/svg">
<path d="M19.9755 4.55402C19.9755 4.76561 19.9755 4.93488 19.9755 5.14647C19.9755 11.0286 15.5321 17.7572 7.3648 17.7572C4.82573 17.7572 2.49826 17.0378 0.551638 15.7682C0.89018 15.8105 1.22872 15.8529 1.60958 15.8529C3.68315 15.8529 5.58745 15.1335 7.11089 13.9486C5.16428 13.9062 3.51388 12.6367 2.96375 10.8594C3.25998 10.9017 3.51388 10.944 3.81011 10.944C4.19097 10.944 4.61414 10.8594 4.95269 10.7747C2.92143 10.3516 1.39799 8.57421 1.39799 6.416V6.37368C1.99044 6.71222 2.70984 6.88149 3.42925 6.92381C2.20203 6.11977 1.44031 4.76561 1.44031 3.24217C1.44031 2.39581 1.6519 1.63409 2.03276 0.999324C4.23328 3.66534 7.53407 5.44269 11.2157 5.65428C11.1311 5.31574 11.0888 4.97719 11.0888 4.63865C11.0888 2.18422 13.0777 0.195286 15.5321 0.195286C16.8017 0.195286 17.9442 0.7031 18.7906 1.59177C19.7639 1.38018 20.7372 0.999324 21.5836 0.491511C21.245 1.54946 20.5679 2.39581 19.637 2.94594C20.5256 2.86131 21.4143 2.6074 22.176 2.26886C21.5836 3.15753 20.8219 3.91925 19.9755 4.55402Z" fill="white" fill-opacity="0.5"/>
</svg>
